<svg id="Layer_5" enable-background="new 0 0 64 64" height="512" viewBox="0 0 64 64" width="512" xmlns="http://www.w3.org/2000/svg"><path d="m23 52v9h2v-10h-1c-.552 0-1 .448-1 1z"/><path d="m3 58v3h18v-4h-17c-.552 0-1 .448-1 1z"/><path d="m60 57h-17v4h18v-3c0-.552-.448-1-1-1z"/><path d="m40 51h-1v10h2v-9c0-.552-.448-1-1-1z"/><path d="m27 51h10v10h-10z"/><circle cx="32" cy="7" r="5"/><circle cx="32" cy="21" r="1"/><path d="m40 28v-8c0-2.797-1.438-5.255-3.612-6.685l-2.959 5.064c.931.509 1.571 1.487 1.571 2.621 0 1.654-1.346 3-3 3s-3-1.346-3-3c0-1.134.64-2.112 1.571-2.621l-2.959-5.064c-2.174 1.43-3.612 3.888-3.612 6.685v8c0 1.657 1.343 3 3 3h1v17c0 1.105.895 2 2 2s2-.895 2-2c0 1.105.895 2 2 2s2-.895 2-2v-17h1c1.657 0 3-1.343 3-3z"/><path d="m32 16.764 2.581-4.33c-.811-.277-1.677-.434-2.581-.434s-1.77.157-2.581.433z"/><circle cx="52" cy="13" r="5"/><path d="m47 37h1v17c0 1.105.895 2 2 2s2-.895 2-2c0 1.105.895 2 2 2s2-.895 2-2v-17h1c1.657 0 3-1.343 3-3v-8c0-4.418-3.582-8-8-8s-8 3.582-8 8v8c0 1.657 1.343 3 3 3z"/><circle cx="12" cy="13" r="5"/><path d="m7 37h1v17c0 1.105.895 2 2 2s2-.895 2-2c0 1.105.895 2 2 2s2-.895 2-2v-17h1c1.657 0 3-1.343 3-3v-8c0-4.418-3.582-8-8-8s-8 3.582-8 8v8c0 1.657 1.343 3 3 3z"/></svg>